<svg width="64" height="64" viewBox="0 0 64 64" fill="none" xmlns="http://www.w3.org/2000/svg">
  <defs>
    <linearGradient id="grad1" x1="0%" y1="0%" x2="100%" y2="100%">
      <stop offset="0%" style="stop-color:#667eea;stop-opacity:1" />
      <stop offset="100%" style="stop-color:#764ba2;stop-opacity:1" />
    </linearGradient>
    <linearGradient id="grad2" x1="0%" y1="0%" x2="100%" y2="100%">
      <stop offset="0%" style="stop-color:#f093fb;stop-opacity:1" />
      <stop offset="100%" style="stop-color:#f5576c;stop-opacity:1" />
    </linearGradient>
  </defs>
  
  <!-- Background circle -->
  <circle cx="32" cy="32" r="30" fill="url(#grad1)" opacity="0.1"/>
  
  <!-- Main AI brain/circuit -->
  <circle cx="32" cy="32" r="12" fill="url(#grad1)" opacity="0.2"/>
  <circle cx="32" cy="32" r="8" fill="url(#grad1)"/>
  
  <!-- Neural connections -->
  <path d="M20 20 L32 32 L44 20" stroke="url(#grad2)" stroke-width="2" fill="none" opacity="0.8"/>
  <path d="M20 44 L32 32 L44 44" stroke="url(#grad2)" stroke-width="2" fill="none" opacity="0.8"/>
  <path d="M12 32 L24 32" stroke="url(#grad2)" stroke-width="2" fill="none" opacity="0.8"/>
  <path d="M40 32 L52 32" stroke="url(#grad2)" stroke-width="2" fill="none" opacity="0.8"/>
  
  <!-- Connection nodes -->
  <circle cx="20" cy="20" r="3" fill="url(#grad2)"/>
  <circle cx="44" cy="20" r="3" fill="url(#grad2)"/>
  <circle cx="20" cy="44" r="3" fill="url(#grad2)"/>
  <circle cx="44" cy="44" r="3" fill="url(#grad2)"/>
  <circle cx="12" cy="32" r="3" fill="url(#grad2)"/>
  <circle cx="52" cy="32" r="3" fill="url(#grad2)"/>
  
  <!-- Central AI indicator -->
  <circle cx="32" cy="32" r="3" fill="white" opacity="0.9"/>
  <circle cx="30" cy="30" r="1" fill="white"/>
  <circle cx="34" cy="34" r="1" fill="white"/>
</svg>