<svg xmlns="http://www.w3.org/2000/svg"
     viewBox="0 0 24 24"
     width="24" height="24">
  <path fill="white" fill-rule="evenodd"
        d="M19.4 15a1.65 1.65 0 0 0 .33 1.82l.06.06
           a2 2 0 1 1-2.83 2.83l-.06-.06
           a1.65 1.65 0 0 0-1.82-.33
           1.65 1.65 0 0 0-1 1.51V21
           a2 2 0 1 1-4 0v-.09
           a1.65 1.65 0 0 0-1-1.51
           1.65 1.65 0 0 0-1.82.33
           l-.06.06
           a2 2 0 1 1-2.83-2.83l.06-.06
           a1.65 1.65 0 0 0 .33-1.82
           1.65 1.65 0 0 0-1.51-1H3
           a2 2 0 1 1 0-4h.09
           a1.65 1.65 0 0 0 1.51-1
           1.65 1.65 0 0 0-.33-1.82
           l-.06-.06
           a2 2 0 1 1 2.83-2.83l.06.06
           a1.65 1.65 0 0 0 1.82.33
           H9
           a1.65 1.65 0 0 0 1-1.51V3
           a2 2 0 1 1 4 0v.09
           a1.65 1.65 0 0 0 1 1.51
           1.65 1.65 0 0 0 1.82-.33
           l.06-.06
           a2 2 0 1 1 2.83 2.83l-.06.06
           a1.65 1.65 0 0 0-.33 1.82
           V9
           a1.65 1.65 0 0 0 1.51 1H21
           a2 2 0 1 1 0 4h-.09
           a1.65 1.65 0 0 0-1.51 1z
           M12 9
           a3 3 0 1 0 0 6
           3 3 0 1 0 0 -6Z"/>
</svg>
